<svg xmlns="http://www.w3.org/2000/svg" viewBox="0 0 164.77 27.78"><path d="M31.31,17.14a6.92,6.92,0,0,0,5.27,2.24c2.31,0,3.54-.88,3.54-2.29,0-1.13-.77-1.52-1.72-1.83-1.44-.46-3.47-.77-5.29-1.51s-3.32-1.85-3.32-4.17c0-3,2.36-5.11,6.66-5.11,3.57,0,5.73,1.46,6.83,2.83L40.66,9.58a5.9,5.9,0,0,0-4.39-1.77c-1.75,0-2.88.57-2.88,1.62,0,.87.74,1.23,1.44,1.49,1.46.54,3.62.77,5.42,1.46s3.5,2,3.5,4.68c0,3.68-3.06,5.58-7.41,5.58-3.75,0-6.37-1.41-7.81-3.21Z" style="fill:#222957"/><path d="M54,13.16a2.7,2.7,0,0,0-2.54-1.75c-1.62,0-3,1.28-3,4.11s1.34,4.06,2.93,4.06A2.86,2.86,0,0,0,53.93,18l2.47,1.8a5.91,5.91,0,0,1-5.19,2.93c-3.37,0-6.15-2.52-6.15-7.27s2.78-7.3,6.43-7.3a5.2,5.2,0,0,1,5,2.87Z" style="fill:#222957"/><path d="M69.53,15.5c0,4.75-2.5,7.27-6,7.27s-6-2.52-6-7.27,2.5-7.3,6-7.3S69.53,10.71,69.53,15.5Zm-8.72,0c0,2.67,1.08,4.06,2.7,4.06s2.73-1.39,2.73-4.06-1.11-4.11-2.73-4.11S60.81,12.8,60.81,15.52Z" style="fill:#222957"/><path d="M75,8.53V9.87a4.83,4.83,0,0,1,3.7-1.67c3.73,0,5.14,3.72,5.14,7.3s-1.41,7.27-5.14,7.27a4.8,4.8,0,0,1-3.47-1.41V26.6l-3.47,1.18V8.53Zm.23,4.39V18a3,3,0,0,0,2.6,1.57c2,0,2.72-1.88,2.72-4.11s-.69-4.12-2.72-4.12A3,3,0,0,0,75.21,12.92Z" style="fill:#222957"/><path d="M88.88,16.55c.34,2.21,1.67,3.11,3.09,3.11a2.78,2.78,0,0,0,2.39-1.34l2.31,2a6,6,0,0,1-4.91,2.44c-3.37,0-6.14-2.52-6.14-7.3s2.49-7.27,6-7.27,6,2.57,6,7.19a5.84,5.84,0,0,1-.08,1.16Zm0-2.52h5.42c-.36-1.77-1.36-2.7-2.72-2.7S89.24,12.31,88.91,14Z" style="fill:#222957"/><path d="M101.5,17.14a6.94,6.94,0,0,0,5.27,2.24c2.31,0,3.55-.88,3.55-2.29,0-1.13-.77-1.52-1.72-1.83-1.44-.46-3.47-.77-5.3-1.51S100,11.9,100,9.58c0-3,2.37-5.11,6.66-5.11,3.57,0,5.73,1.46,6.84,2.83l-2.62,2.28a5.91,5.91,0,0,0-4.4-1.77c-1.75,0-2.88.57-2.88,1.62,0,.87.75,1.23,1.44,1.49,1.47.54,3.63.77,5.43,1.46s3.49,2,3.49,4.68c0,3.68-3.06,5.58-7.4,5.58-3.75,0-6.38-1.41-7.81-3.21Z" style="fill:#222957"/><path d="M116.47,8.53V4.91L120,3.72V8.53h3.11v2.83H120V18c0,.78.39,1.19,1.34,1.19a2.59,2.59,0,0,0,1.85-.72l-.57,3.06a4,4,0,0,1-2.77,1c-1.83,0-3.34-1.2-3.34-3.72V11.36h-1.62V8.53Z" style="fill:#222957"/><path d="M126.13,9.69a8.45,8.45,0,0,1,5.06-1.49c3.24,0,5.53,1.33,5.53,5.55v8.68h-3.19v-.74a7.24,7.24,0,0,1-3.57.92c-2.73,0-4.89-1.41-4.89-4.44s2.19-4.65,5.25-4.65a9.19,9.19,0,0,1,3,.51v0c0-2-.88-2.52-2.47-2.52a5.8,5.8,0,0,0-3.32,1Zm7.17,9.61v-3a8.75,8.75,0,0,0-2.14-.29c-1.54,0-2.82.54-2.82,2s1.15,1.83,2.44,1.83A7.93,7.93,0,0,0,133.3,19.3Z" style="fill:#222957"/><path d="M147.84,13.16a2.68,2.68,0,0,0-2.54-1.75c-1.62,0-3,1.28-3,4.11s1.34,4.06,2.93,4.06A2.85,2.85,0,0,0,147.79,18l2.47,1.8a5.91,5.91,0,0,1-5.19,2.93c-3.37,0-6.14-2.52-6.14-7.27s2.77-7.3,6.42-7.3a5.18,5.18,0,0,1,5,2.87Z" style="fill:#222957"/><path d="M164,8.53l-4.17,5.22,4.94,8.68H161l-3.37-6L156,18.5v3.93h-3.47V4.62L156,3.44V14l4.3-5.45Z" style="fill:#222957"/><path d="M23,12.26H19.45l1.77-3.07-.58-1h-13l1.18-2H19.45L15.92,0H5.31L0,9.19l.59,1H4.13L2.36,13.28l.59,1h13l-1.19,2.05H4.13l3.54,6.12H18.28l5.31-9.19Zm-2.35,2-3,5.11-1.18-2.05,1.77-3.06ZM14.74,2l1.19,2.05H8.73L7.54,2ZM2.94,8.17l2.9-5L7,5.2l-1.71,3Zm15.35,2-1.19,2H5.3l1.18-2ZM8.84,20.43,7.66,18.38h7.08l1.19,2.05Z" style="fill:#67c4aa"/></svg>